<svg width="469" height="215" viewBox="0 0 469 215" fill="none" xmlns="http://www.w3.org/2000/svg">
<rect width="469" height="215" fill="white"/>
<rect x="20" y="20" width="175" height="175" fill="#45ADA8"/>
<rect x="0.726868" y="107.5" width="151" height="151" transform="rotate(-45 0.726868 107.5)" fill="#9DE0AD"/>
<path d="M197.84 75.8H227.664C226.896 79.2987 225.659 82.584 223.952 85.656C222.331 88.728 220.24 91.4587 217.68 93.848C215.12 96.2373 212.048 98.1147 208.464 99.48C204.965 100.76 200.997 101.4 196.56 101.4C190.245 101.4 184.528 99.9067 179.408 96.92C174.288 93.9333 170.192 89.7947 167.12 84.504C164.133 79.2133 162.64 73.112 162.64 66.2C162.64 59.2027 164.133 53.1013 167.12 47.896C170.192 42.6053 174.288 38.4667 179.408 35.48C184.528 32.4933 190.245 31 196.56 31C203.387 31 209.317 32.3653 214.352 35.096C219.387 37.7413 223.312 41.4533 226.128 46.232L233.808 39.192C231.248 35.0107 228.091 31.512 224.336 28.696C220.667 25.88 216.485 23.7467 211.792 22.296C207.184 20.8453 202.107 20.12 196.56 20.12C190.075 20.12 184.059 21.272 178.512 23.576C172.965 25.7947 168.144 28.9947 164.048 33.176C159.952 37.272 156.752 42.136 154.448 47.768C152.229 53.4 151.12 59.544 151.12 66.2C151.12 72.856 152.229 79 154.448 84.632C156.752 90.264 159.952 95.1707 164.048 99.352C168.144 103.448 172.965 106.648 178.512 108.952C184.059 111.171 190.075 112.28 196.56 112.28C203.387 112.28 209.445 111.043 214.736 108.568C220.112 106.008 224.635 102.552 228.304 98.2C231.973 93.848 234.747 88.8987 236.624 83.352C238.501 77.72 239.44 71.7893 239.44 65.56H197.84V75.8ZM271.49 66.84L302.21 111H315.65L283.65 66.84H271.49ZM255.49 21.4V111H266.37V21.4H255.49ZM261.506 31H279.81C283.65 31 287.021 31.6827 289.922 33.048C292.909 34.4133 295.213 36.376 296.834 38.936C298.541 41.496 299.394 44.6107 299.394 48.28C299.394 51.9493 298.541 55.064 296.834 57.624C295.213 60.184 292.909 62.1467 289.922 63.512C287.021 64.8773 283.65 65.56 279.81 65.56H261.506V75.16H279.81C285.613 75.16 290.775 74.0933 295.298 71.96C299.906 69.7413 303.533 66.6267 306.178 62.616C308.909 58.52 310.274 53.7413 310.274 48.28C310.274 42.7333 308.909 37.9547 306.178 33.944C303.533 29.9333 299.906 26.8613 295.298 24.728C290.775 22.5093 285.613 21.4 279.81 21.4H261.506V31ZM335.691 84.12H383.051L379.211 73.88H339.531L335.691 84.12ZM359.115 41.624L374.475 77.72L375.499 80.28L388.555 111H400.715L359.115 16.92L317.515 111H329.675L342.987 79.512L344.011 77.208L359.115 41.624ZM405.855 31.64H450.399L403.295 111H466.015V100.76H421.471L468.575 21.4H405.855V31.64Z" fill="#594F4F"/>
<path d="M163.353 161.74C163.343 156.601 164.463 152.118 166.711 148.291C169.022 144.401 172.024 141.356 175.717 139.156C179.41 136.955 183.419 135.851 187.743 135.842C190.876 135.836 193.728 136.238 196.299 137.047C198.933 137.857 201.316 139.012 203.45 140.511C205.583 141.948 207.404 143.637 208.912 145.577L208.891 135.049C206.129 132.61 203.118 130.799 199.857 129.614C196.596 128.43 192.552 127.843 187.727 127.852C183.152 127.861 178.861 128.715 174.854 130.415C170.909 132.052 167.436 134.409 164.434 137.486C161.432 140.5 159.089 144.076 157.405 148.216C155.721 152.355 154.884 156.869 154.893 161.757C154.903 166.645 155.758 171.155 157.458 175.288C159.158 179.42 161.515 183.019 164.529 186.084C167.543 189.086 171.026 191.429 174.977 193.113C178.991 194.735 183.285 195.541 187.86 195.532C192.685 195.523 196.726 194.919 199.982 193.722C203.239 192.525 206.243 190.702 208.995 188.253L208.975 177.725C207.475 179.67 205.661 181.397 203.533 182.905C201.405 184.351 199.026 185.483 196.396 186.303C193.828 187.123 190.977 187.536 187.844 187.542C183.52 187.55 179.507 186.462 175.806 184.276C172.104 182.09 169.09 179.056 166.764 175.175C164.5 171.294 163.363 166.816 163.353 161.74ZM234.754 162.07L257.377 194.456L267.247 194.436L243.684 162.053L234.754 162.07ZM222.938 128.723L223.067 194.523L231.057 194.507L230.928 128.707L222.938 128.723ZM227.37 135.764L240.812 135.738C243.632 135.733 246.109 136.229 248.241 137.228C250.436 138.226 252.131 139.664 253.326 141.542C254.583 143.419 255.214 145.705 255.219 148.4C255.224 151.095 254.602 153.383 253.353 155.266C252.166 157.148 250.476 158.593 248.285 159.6C246.156 160.606 243.682 161.113 240.862 161.118L227.42 161.144L227.434 168.194L240.876 168.168C245.137 168.16 248.927 167.369 252.245 165.796C255.626 164.16 258.285 161.867 260.222 158.918C262.221 155.906 263.217 152.395 263.209 148.384C263.201 144.311 262.192 140.804 260.18 137.862C258.232 134.921 255.564 132.67 252.177 131.11C248.853 129.487 245.06 128.68 240.798 128.688L227.356 128.714L227.37 135.764ZM280.085 194.411L313.267 194.346L313.252 186.826L280.07 186.891L280.085 194.411ZM279.971 136.131L313.153 136.066L313.138 128.546L279.956 128.611L279.971 136.131ZM280.022 162.451L311.324 162.39L311.309 154.87L280.008 154.931L280.022 162.451ZM275.538 128.62L275.667 194.42L283.657 194.404L283.528 128.604L275.538 128.62ZM333.608 174.566L368.388 174.498L365.553 166.984L336.413 167.041L333.608 174.566ZM350.749 143.325L362.081 169.81L362.836 171.689L372.468 194.23L381.398 194.213L350.713 125.183L320.298 194.332L329.228 194.315L338.959 171.172L339.708 169.478L350.749 143.325ZM376.099 135.943L393.019 135.91L393.134 194.19L401.124 194.174L401.009 135.894L417.929 135.861L417.915 128.341L376.085 128.423L376.099 135.943ZM430.907 194.116L464.089 194.051L464.074 186.531L430.892 186.596L430.907 194.116ZM430.793 135.836L463.975 135.771L463.96 128.251L430.778 128.316L430.793 135.836ZM430.844 162.156L462.146 162.094L462.131 154.574L430.83 154.636L430.844 162.156ZM426.36 128.324L426.489 194.124L434.479 194.109L434.35 128.309L426.36 128.324Z" fill="#594F4F"/>
</svg>
