<?xml version="1.0" standalone="no"?>
<!DOCTYPE svg PUBLIC "-//W3C//DTD SVG 20010904//EN"
 "http://www.w3.org/TR/2001/REC-SVG-20010904/DTD/svg10.dtd">
<svg version="1.0" xmlns="http://www.w3.org/2000/svg"
 width="795.000000pt" height="795.000000pt" viewBox="0 0 795.000000 795.000000"
 preserveAspectRatio="xMidYMid meet">

<g transform="translate(0.000000,795.000000) scale(0.100000,-0.100000)"
fill="#000000" stroke="none">
<path d="M3595 7939 c-408 -31 -856 -143 -1235 -309 -487 -213 -920 -526
-1321 -955 -106 -113 -299 -345 -299 -359 0 -3 1456 -6 3235 -6 1779 0 3235 3
3235 6 0 14 -193 246 -299 359 -355 380 -726 663 -1146 872 -444 222 -930 356
-1430 393 -161 11 -579 11 -740 -1z"/>
<path d="M1240 1077 c643 -629 1482 -1003 2397 -1068 204 -14 687 -6 853 15
860 107 1624 470 2220 1053 l135 132 -2870 0 -2870 0 135 -132z"/>
</g>
</svg>
